<svg id="visual" viewBox="0 0 900 600" width="900" height="600" xmlns="http://www.w3.org/2000/svg" xmlns:xlink="http://www.w3.org/1999/xlink" version="1.1"><g stroke-width="1" stroke-linejoin="bevel"><path d="M460 290.1L468 291L463 246.1Z" fill="#081a28" stroke="#081a28"></path><path d="M463 246.1L419 285L460 290.1Z" fill="#00101c" stroke="#00101c"></path><path d="M468 291L534 281.1L463 246.1Z" fill="#15384f" stroke="#15384f"></path><path d="M530 228.3L501 208.4L463 246.1Z" fill="#246688" stroke="#246688"></path><path d="M463 246.1L394 246.1L419 285Z" fill="#246688" stroke="#246688"></path><path d="M460 290.1L469 337.9L468 291Z" fill="#112e42" stroke="#112e42"></path><path d="M468 291L506 338L534 281.1Z" fill="#112e42" stroke="#112e42"></path><path d="M443 343.9L469 337.9L460 290.1Z" fill="#081a28" stroke="#081a28"></path><path d="M534 281.1L530 228.3L463 246.1Z" fill="#112e42" stroke="#112e42"></path><path d="M392 218.1L394 246.1L463 246.1Z" fill="#15384f" stroke="#15384f"></path><path d="M436 373.9L443 343.9L373 377.7Z" fill="#1d4e6b" stroke="#1d4e6b"></path><path d="M419 285L443 343.9L460 290.1Z" fill="#277297" stroke="#277297"></path><path d="M501 208.4L470 189.4L463 246.1Z" fill="#112e42" stroke="#112e42"></path><path d="M521 345.7L506 338L478 420.7Z" fill="#00101c" stroke="#00101c"></path><path d="M469 337.9L506 338L468 291Z" fill="#112e42" stroke="#112e42"></path><path d="M420 177.3L392 218.1L463 246.1Z" fill="#112e42" stroke="#112e42"></path><path d="M572 305.9L558 270.1L534 281.1Z" fill="#277297" stroke="#277297"></path><path d="M534 281.1L558 270.1L530 228.3Z" fill="#1d4e6b" stroke="#1d4e6b"></path><path d="M478 420.7L506 338L469 337.9Z" fill="#277297" stroke="#277297"></path><path d="M506 338L521 345.7L534 281.1Z" fill="#081a28" stroke="#081a28"></path><path d="M420 177.3L392 202.4L392 218.1Z" fill="#15384f" stroke="#15384f"></path><path d="M530 228.3L509 178.3L501 208.4Z" fill="#112e42" stroke="#112e42"></path><path d="M501 208.4L509 178.3L470 189.4Z" fill="#081a28" stroke="#081a28"></path><path d="M470 189.4L436 173.4L463 246.1Z" fill="#246688" stroke="#246688"></path><path d="M575 231.3L509 178.3L530 228.3Z" fill="#277297" stroke="#277297"></path><path d="M425 141.4L436 173.4L447 117.6Z" fill="#081a28" stroke="#081a28"></path><path d="M436 173.4L420 177.3L463 246.1Z" fill="#297ea6" stroke="#297ea6"></path><path d="M572 305.9L575 261L558 270.1Z" fill="#205a7a" stroke="#205a7a"></path><path d="M558 270.1L575 231.3L530 228.3Z" fill="#112e42" stroke="#112e42"></path><path d="M373 377.7L443 343.9L419 285Z" fill="#0c2435" stroke="#0c2435"></path><path d="M443 343.9L436 373.9L469 337.9Z" fill="#0c2435" stroke="#0c2435"></path><path d="M521 345.7L572 305.9L534 281.1Z" fill="#297ea6" stroke="#297ea6"></path><path d="M575 261L575 231.3L558 270.1Z" fill="#00101c" stroke="#00101c"></path><path d="M392 218.1L351 239.1L394 246.1Z" fill="#081a28" stroke="#081a28"></path><path d="M394 246.1L340 316L419 285Z" fill="#246688" stroke="#246688"></path><path d="M368 198.3L351 239.1L392 218.1Z" fill="#081a28" stroke="#081a28"></path><path d="M368 198.3L392 218.1L392 202.4Z" fill="#19435d" stroke="#19435d"></path><path d="M397 140.6L368 198.3L392 202.4Z" fill="#277297" stroke="#277297"></path><path d="M324 221.3L347 245.3L351 239.1Z" fill="#081a28" stroke="#081a28"></path><path d="M351 239.1L347 245.3L394 246.1Z" fill="#15384f" stroke="#15384f"></path><path d="M476 119.6L436 173.4L470 189.4Z" fill="#297ea6" stroke="#297ea6"></path><path d="M436 173.4L425 141.4L420 177.3Z" fill="#277297" stroke="#277297"></path><path d="M420 177.3L397 140.6L392 202.4Z" fill="#15384f" stroke="#15384f"></path><path d="M347 245.3L340 316L394 246.1Z" fill="#112e42" stroke="#112e42"></path><path d="M381 138.6L349 200.4L368 198.3Z" fill="#277297" stroke="#277297"></path><path d="M368 198.3L349 200.4L351 239.1Z" fill="#081a28" stroke="#081a28"></path><path d="M295 282.1L301 302.9L340 316Z" fill="#1d4e6b" stroke="#1d4e6b"></path><path d="M340 316L373 377.7L419 285Z" fill="#277297" stroke="#277297"></path><path d="M521 345.7L597 328.9L572 305.9Z" fill="#00101c" stroke="#00101c"></path><path d="M572 305.9L618 315.9L575 261Z" fill="#277297" stroke="#277297"></path><path d="M575 261L645 249.3L575 231.3Z" fill="#246688" stroke="#246688"></path><path d="M614 335L597 328.9L592 421.7Z" fill="#0c2435" stroke="#0c2435"></path><path d="M425 141.4L397 140.6L420 177.3Z" fill="#205a7a" stroke="#205a7a"></path><path d="M491 114.7L476 119.6L509 178.3Z" fill="#19435d" stroke="#19435d"></path><path d="M509 178.3L476 119.6L470 189.4Z" fill="#246688" stroke="#246688"></path><path d="M425 141.4L413 94.7L397 140.6Z" fill="#081a28" stroke="#081a28"></path><path d="M277 145.6L324 221.3L349 200.4Z" fill="#297ea6" stroke="#297ea6"></path><path d="M349 200.4L324 221.3L351 239.1Z" fill="#277297" stroke="#277297"></path><path d="M476 119.6L447 117.6L436 173.4Z" fill="#205a7a" stroke="#205a7a"></path><path d="M430 441.6L478 420.7L436 373.9Z" fill="#246688" stroke="#246688"></path><path d="M436 373.9L478 420.7L469 337.9Z" fill="#205a7a" stroke="#205a7a"></path><path d="M413 94.7L381 138.6L397 140.6Z" fill="#19435d" stroke="#19435d"></path><path d="M397 140.6L381 138.6L368 198.3Z" fill="#205a7a" stroke="#205a7a"></path><path d="M533 125.6L491 114.7L509 178.3Z" fill="#1d4e6b" stroke="#1d4e6b"></path><path d="M476 119.6L459 48.7L447 117.6Z" fill="#00101c" stroke="#00101c"></path><path d="M437 445.4L480 424.7L478 420.7Z" fill="#112e42" stroke="#112e42"></path><path d="M478 420.7L499 433.6L521 345.7Z" fill="#277297" stroke="#277297"></path><path d="M562 140.4L533 125.6L509 178.3Z" fill="#112e42" stroke="#112e42"></path><path d="M614 335L618 315.9L597 328.9Z" fill="#205a7a" stroke="#205a7a"></path><path d="M597 328.9L618 315.9L572 305.9Z" fill="#19435d" stroke="#19435d"></path><path d="M575 231.3L562 140.4L509 178.3Z" fill="#19435d" stroke="#19435d"></path><path d="M632 182.4L562 140.4L575 231.3Z" fill="#0c2435" stroke="#0c2435"></path><path d="M340 316L342 369.9L373 377.7Z" fill="#0c2435" stroke="#0c2435"></path><path d="M373 377.7L430 441.6L436 373.9Z" fill="#081a28" stroke="#081a28"></path><path d="M321 378.9L342 369.9L299 354.7Z" fill="#081a28" stroke="#081a28"></path><path d="M592 421.7L597 328.9L521 345.7Z" fill="#277297" stroke="#277297"></path><path d="M510 454.4L499 433.6L480 424.7Z" fill="#112e42" stroke="#112e42"></path><path d="M480 424.7L499 433.6L478 420.7Z" fill="#0c2435" stroke="#0c2435"></path><path d="M295 282.1L340 316L347 245.3Z" fill="#15384f" stroke="#15384f"></path><path d="M324 221.3L295 282.1L347 245.3Z" fill="#277297" stroke="#277297"></path><path d="M562 140.4L555 119.7L533 125.6Z" fill="#081a28" stroke="#081a28"></path><path d="M533 125.6L501 73.9L491 114.7Z" fill="#00101c" stroke="#00101c"></path><path d="M639 298L640 283.1L618 315.9Z" fill="#15384f" stroke="#15384f"></path><path d="M618 315.9L640 283.1L575 261Z" fill="#112e42" stroke="#112e42"></path><path d="M562 140.4L601 118.7L555 119.7Z" fill="#15384f" stroke="#15384f"></path><path d="M614 335L639 298L618 315.9Z" fill="#246688" stroke="#246688"></path><path d="M370 438.6L430 441.6L373 377.7Z" fill="#0c2435" stroke="#0c2435"></path><path d="M430 441.6L437 445.4L478 420.7Z" fill="#297ea6" stroke="#297ea6"></path><path d="M667 228.1L645 249.3L679 264Z" fill="#1d4e6b" stroke="#1d4e6b"></path><path d="M640 283.1L645 249.3L575 261Z" fill="#00101c" stroke="#00101c"></path><path d="M459 48.7L413 94.7L447 117.6Z" fill="#15384f" stroke="#15384f"></path><path d="M447 117.6L413 94.7L425 141.4Z" fill="#0c2435" stroke="#0c2435"></path><path d="M501 73.9L476 119.6L491 114.7Z" fill="#277297" stroke="#277297"></path><path d="M288 327L340 316L301 302.9Z" fill="#112e42" stroke="#112e42"></path><path d="M299 354.7L342 369.9L340 316Z" fill="#081a28" stroke="#081a28"></path><path d="M342 369.9L345 413.7L373 377.7Z" fill="#112e42" stroke="#112e42"></path><path d="M645 249.3L632 182.4L575 231.3Z" fill="#0c2435" stroke="#0c2435"></path><path d="M277 314L288 327L301 302.9Z" fill="#205a7a" stroke="#205a7a"></path><path d="M288 327L299 354.7L340 316Z" fill="#246688" stroke="#246688"></path><path d="M301 406.6L345 413.7L321 378.9Z" fill="#246688" stroke="#246688"></path><path d="M321 378.9L345 413.7L342 369.9Z" fill="#00101c" stroke="#00101c"></path><path d="M430 441.6L401 504.4L437 445.4Z" fill="#19435d" stroke="#19435d"></path><path d="M437 445.4L510 454.4L480 424.7Z" fill="#19435d" stroke="#19435d"></path><path d="M499 433.6L571 432.4L521 345.7Z" fill="#1d4e6b" stroke="#1d4e6b"></path><path d="M510 454.4L571 432.4L499 433.6Z" fill="#0c2435" stroke="#0c2435"></path><path d="M614 335L656 376.7L639 298Z" fill="#112e42" stroke="#112e42"></path><path d="M247 320.9L277 314L241 303Z" fill="#112e42" stroke="#112e42"></path><path d="M295 282.1L277 314L301 302.9Z" fill="#205a7a" stroke="#205a7a"></path><path d="M288 327L247 320.9L299 354.7Z" fill="#0c2435" stroke="#0c2435"></path><path d="M345 413.7L370 438.6L373 377.7Z" fill="#297ea6" stroke="#297ea6"></path><path d="M508 542.3L514 458.6L510 454.4Z" fill="#00101c" stroke="#00101c"></path><path d="M525 476.3L514 458.6L508 542.3Z" fill="#0c2435" stroke="#0c2435"></path><path d="M510 454.4L514 458.6L571 432.4Z" fill="#112e42" stroke="#112e42"></path><path d="M522 24.9L501 73.9L597 49.9Z" fill="#0c2435" stroke="#0c2435"></path><path d="M555 119.7L501 73.9L533 125.6Z" fill="#00101c" stroke="#00101c"></path><path d="M571 432.4L592 421.7L521 345.7Z" fill="#00101c" stroke="#00101c"></path><path d="M632 182.4L601 118.7L562 140.4Z" fill="#0c2435" stroke="#0c2435"></path><path d="M344 73.9L333 113.7L381 138.6Z" fill="#297ea6" stroke="#297ea6"></path><path d="M381 138.6L333 113.7L349 200.4Z" fill="#19435d" stroke="#19435d"></path><path d="M241 303L277 314L295 282.1Z" fill="#297ea6" stroke="#297ea6"></path><path d="M679 264L645 249.3L640 283.1Z" fill="#00101c" stroke="#00101c"></path><path d="M645 249.3L667 228.1L632 182.4Z" fill="#112e42" stroke="#112e42"></path><path d="M664 110.6L605 90.6L601 118.7Z" fill="#15384f" stroke="#15384f"></path><path d="M679 264L640 283.1L639 298Z" fill="#205a7a" stroke="#205a7a"></path><path d="M345 413.7L365 448.4L370 438.6Z" fill="#19435d" stroke="#19435d"></path><path d="M370 438.6L365 448.4L430 441.6Z" fill="#205a7a" stroke="#205a7a"></path><path d="M334 463.6L365 448.4L345 413.7Z" fill="#297ea6" stroke="#297ea6"></path><path d="M599 433.6L616 417.6L592 421.7Z" fill="#112e42" stroke="#112e42"></path><path d="M592 421.7L616 417.6L614 335Z" fill="#277297" stroke="#277297"></path><path d="M599 433.6L592 421.7L571 432.4Z" fill="#0c2435" stroke="#0c2435"></path><path d="M550 480.4L599 433.6L571 432.4Z" fill="#1d4e6b" stroke="#1d4e6b"></path><path d="M689 361.9L679 264L639 298Z" fill="#1d4e6b" stroke="#1d4e6b"></path><path d="M299 354.7L301 406.6L321 378.9Z" fill="#19435d" stroke="#19435d"></path><path d="M283 418.6L301 406.6L299 354.7Z" fill="#00101c" stroke="#00101c"></path><path d="M508 542.3L510 454.4L437 445.4Z" fill="#205a7a" stroke="#205a7a"></path><path d="M514 458.6L550 480.4L571 432.4Z" fill="#205a7a" stroke="#205a7a"></path><path d="M522 24.9L480 50.9L501 73.9Z" fill="#112e42" stroke="#112e42"></path><path d="M501 73.9L480 50.9L476 119.6Z" fill="#205a7a" stroke="#205a7a"></path><path d="M413 94.7L344 73.9L381 138.6Z" fill="#277297" stroke="#277297"></path><path d="M616 417.6L656 376.7L614 335Z" fill="#081a28" stroke="#081a28"></path><path d="M689 361.9L685 261.1L679 264Z" fill="#0c2435" stroke="#0c2435"></path><path d="M679 264L685 261.1L667 228.1Z" fill="#205a7a" stroke="#205a7a"></path><path d="M480 50.9L459 48.7L476 119.6Z" fill="#297ea6" stroke="#297ea6"></path><path d="M344 73.9L308 109.6L333 113.7Z" fill="#1d4e6b" stroke="#1d4e6b"></path><path d="M333 113.7L277 145.6L349 200.4Z" fill="#00101c" stroke="#00101c"></path><path d="M224 237.1L295 282.1L324 221.3Z" fill="#277297" stroke="#277297"></path><path d="M277 314L247 320.9L288 327Z" fill="#277297" stroke="#277297"></path><path d="M664 110.6L601 118.7L632 182.4Z" fill="#19435d" stroke="#19435d"></path><path d="M601 118.7L605 90.6L555 119.7Z" fill="#112e42" stroke="#112e42"></path><path d="M688 210.3L632 182.4L667 228.1Z" fill="#246688" stroke="#246688"></path><path d="M308 109.6L277 145.6L333 113.7Z" fill="#297ea6" stroke="#297ea6"></path><path d="M525 476.3L550 480.4L514 458.6Z" fill="#15384f" stroke="#15384f"></path><path d="M672 394.7L656 376.7L616 417.6Z" fill="#246688" stroke="#246688"></path><path d="M224 237.1L241 303L295 282.1Z" fill="#00101c" stroke="#00101c"></path><path d="M685 261.1L688 210.3L667 228.1Z" fill="#246688" stroke="#246688"></path><path d="M411 30.9L344 73.9L413 94.7Z" fill="#277297" stroke="#277297"></path><path d="M301 406.6L334 463.6L345 413.7Z" fill="#19435d" stroke="#19435d"></path><path d="M365 448.4L401 504.4L430 441.6Z" fill="#297ea6" stroke="#297ea6"></path><path d="M525 476.3L508 542.3L550 480.4Z" fill="#246688" stroke="#246688"></path><path d="M283 418.6L334 463.6L301 406.6Z" fill="#297ea6" stroke="#297ea6"></path><path d="M249 424.7L283 418.6L299 354.7Z" fill="#246688" stroke="#246688"></path><path d="M672 394.7L686 363.9L656 376.7Z" fill="#081a28" stroke="#081a28"></path><path d="M656 376.7L686 363.9L639 298Z" fill="#19435d" stroke="#19435d"></path><path d="M702 193.3L694 186.4L688 210.3Z" fill="#112e42" stroke="#112e42"></path><path d="M672 394.7L616 417.6L675 413.6Z" fill="#00101c" stroke="#00101c"></path><path d="M245 172.4L238 195.3L324 221.3Z" fill="#19435d" stroke="#19435d"></path><path d="M675 413.6L616 417.6L672 475.3Z" fill="#19435d" stroke="#19435d"></path><path d="M242 160.6L245 172.4L277 145.6Z" fill="#246688" stroke="#246688"></path><path d="M277 145.6L245 172.4L324 221.3Z" fill="#205a7a" stroke="#205a7a"></path><path d="M701 386.7L689 361.9L686 363.9Z" fill="#00101c" stroke="#00101c"></path><path d="M686 363.9L689 361.9L639 298Z" fill="#277297" stroke="#277297"></path><path d="M702 193.3L688 210.3L751 265Z" fill="#00101c" stroke="#00101c"></path><path d="M688 210.3L694 186.4L632 182.4Z" fill="#1d4e6b" stroke="#1d4e6b"></path><path d="M441 0L411 30.9L459 48.7Z" fill="#081a28" stroke="#081a28"></path><path d="M459 48.7L411 30.9L413 94.7Z" fill="#1d4e6b" stroke="#1d4e6b"></path><path d="M217 220.3L224 237.1L238 195.3Z" fill="#15384f" stroke="#15384f"></path><path d="M238 195.3L224 237.1L324 221.3Z" fill="#112e42" stroke="#112e42"></path><path d="M367 524.3L401 504.4L365 448.4Z" fill="#277297" stroke="#277297"></path><path d="M751 265L688 210.3L685 261.1Z" fill="#081a28" stroke="#081a28"></path><path d="M693 140.6L664 110.6L632 182.4Z" fill="#205a7a" stroke="#205a7a"></path><path d="M262 111.7L242 160.6L277 145.6Z" fill="#00101c" stroke="#00101c"></path><path d="M245 172.4L202 187.4L238 195.3Z" fill="#112e42" stroke="#112e42"></path><path d="M262 111.7L277 145.6L308 109.6Z" fill="#297ea6" stroke="#297ea6"></path><path d="M597 49.9L501 73.9L555 119.7Z" fill="#246688" stroke="#246688"></path><path d="M480 50.9L456 0L459 48.7Z" fill="#246688" stroke="#246688"></path><path d="M693 140.6L632 182.4L694 186.4Z" fill="#0c2435" stroke="#0c2435"></path><path d="M605 90.6L597 49.9L555 119.7Z" fill="#0c2435" stroke="#0c2435"></path><path d="M202 187.4L217 220.3L238 195.3Z" fill="#0c2435" stroke="#0c2435"></path><path d="M224 237.1L202 248.1L241 303Z" fill="#1d4e6b" stroke="#1d4e6b"></path><path d="M672 394.7L701 386.7L686 363.9Z" fill="#15384f" stroke="#15384f"></path><path d="M672 475.3L616 417.6L599 433.6Z" fill="#0c2435" stroke="#0c2435"></path><path d="M638 71.7L597 49.9L605 90.6Z" fill="#1d4e6b" stroke="#1d4e6b"></path><path d="M294 62.7L262 111.7L308 109.6Z" fill="#081a28" stroke="#081a28"></path><path d="M164 218.3L202 248.1L217 220.3Z" fill="#00101c" stroke="#00101c"></path><path d="M308 59.7L308 109.6L344 73.9Z" fill="#19435d" stroke="#19435d"></path><path d="M696 142.4L693 140.6L694 186.4Z" fill="#00101c" stroke="#00101c"></path><path d="M664 110.6L638 71.7L605 90.6Z" fill="#0c2435" stroke="#0c2435"></path><path d="M646 54.9L638 71.7L679 51.9Z" fill="#1d4e6b" stroke="#1d4e6b"></path><path d="M702 193.3L696 142.4L694 186.4Z" fill="#19435d" stroke="#19435d"></path><path d="M693 140.6L686 92.6L664 110.6Z" fill="#277297" stroke="#277297"></path><path d="M314 49.9L308 59.7L344 73.9Z" fill="#277297" stroke="#277297"></path><path d="M675 413.6L701 386.7L672 394.7Z" fill="#297ea6" stroke="#297ea6"></path><path d="M765 308L751 265L685 261.1Z" fill="#15384f" stroke="#15384f"></path><path d="M202 187.4L245 172.4L242 160.6Z" fill="#297ea6" stroke="#297ea6"></path><path d="M217 220.3L202 248.1L224 237.1Z" fill="#0c2435" stroke="#0c2435"></path><path d="M241 303L193 298L247 320.9Z" fill="#297ea6" stroke="#297ea6"></path><path d="M247 320.9L249 424.7L299 354.7Z" fill="#19435d" stroke="#19435d"></path><path d="M373 0L314 49.9L344 73.9Z" fill="#1d4e6b" stroke="#1d4e6b"></path><path d="M308 59.7L294 62.7L308 109.6Z" fill="#00101c" stroke="#00101c"></path><path d="M211 412.6L249 424.7L247 320.9Z" fill="#1d4e6b" stroke="#1d4e6b"></path><path d="M290 494.4L313 502.4L334 463.6Z" fill="#112e42" stroke="#112e42"></path><path d="M334 463.6L367 524.3L365 448.4Z" fill="#277297" stroke="#277297"></path><path d="M314 49.9L294 62.7L308 59.7Z" fill="#081a28" stroke="#081a28"></path><path d="M521 0L456 0L522 24.9Z" fill="#205a7a" stroke="#205a7a"></path><path d="M522 24.9L456 0L480 50.9Z" fill="#1d4e6b" stroke="#1d4e6b"></path><path d="M411 30.9L373 0L344 73.9Z" fill="#277297" stroke="#277297"></path><path d="M456 0L441 0L459 48.7Z" fill="#00101c" stroke="#00101c"></path><path d="M558 0L522 24.9L597 49.9Z" fill="#297ea6" stroke="#297ea6"></path><path d="M558 0L521 0L522 24.9Z" fill="#19435d" stroke="#19435d"></path><path d="M313 502.4L367 524.3L334 463.6Z" fill="#1d4e6b" stroke="#1d4e6b"></path><path d="M401 504.4L508 542.3L437 445.4Z" fill="#1d4e6b" stroke="#1d4e6b"></path><path d="M202 248.1L193 298L241 303Z" fill="#081a28" stroke="#081a28"></path><path d="M170 202.4L202 187.4L162 176.4Z" fill="#15384f" stroke="#15384f"></path><path d="M172 157.6L202 187.4L242 160.6Z" fill="#00101c" stroke="#00101c"></path><path d="M202 248.1L126 275.1L193 298Z" fill="#0c2435" stroke="#0c2435"></path><path d="M441 0L400 0L411 30.9Z" fill="#112e42" stroke="#112e42"></path><path d="M422 551.3L508 542.3L401 504.4Z" fill="#19435d" stroke="#19435d"></path><path d="M550 480.4L620 503.4L599 433.6Z" fill="#277297" stroke="#277297"></path><path d="M686 92.6L638 71.7L664 110.6Z" fill="#277297" stroke="#277297"></path><path d="M638 71.7L646 54.9L597 49.9Z" fill="#0c2435" stroke="#0c2435"></path><path d="M290 494.4L334 463.6L283 418.6Z" fill="#00101c" stroke="#00101c"></path><path d="M390 555.1L391 538.3L367 524.3Z" fill="#1d4e6b" stroke="#1d4e6b"></path><path d="M367 524.3L391 538.3L401 504.4Z" fill="#205a7a" stroke="#205a7a"></path><path d="M624 530.1L620 503.4L603 550.3Z" fill="#081a28" stroke="#081a28"></path><path d="M725 405.6L739 369.9L701 386.7Z" fill="#00101c" stroke="#00101c"></path><path d="M249 424.7L248 445.6L283 418.6Z" fill="#0c2435" stroke="#0c2435"></path><path d="M211 412.6L248 445.6L249 424.7Z" fill="#277297" stroke="#277297"></path><path d="M696 142.4L686 92.6L693 140.6Z" fill="#246688" stroke="#246688"></path><path d="M627 0L558 0L597 49.9Z" fill="#297ea6" stroke="#297ea6"></path><path d="M400 0L373 0L411 30.9Z" fill="#205a7a" stroke="#205a7a"></path><path d="M314 49.9L287 3.9L294 62.7Z" fill="#15384f" stroke="#15384f"></path><path d="M765 308L685 261.1L689 361.9Z" fill="#297ea6" stroke="#297ea6"></path><path d="M702 193.3L766 183.3L696 142.4Z" fill="#00101c" stroke="#00101c"></path><path d="M710 65.9L691 70.7L686 92.6Z" fill="#1d4e6b" stroke="#1d4e6b"></path><path d="M391 538.3L422 551.3L401 504.4Z" fill="#15384f" stroke="#15384f"></path><path d="M248 445.6L290 494.4L283 418.6Z" fill="#00101c" stroke="#00101c"></path><path d="M386 567.1L390 555.1L367 524.3Z" fill="#246688" stroke="#246688"></path><path d="M725 405.6L701 386.7L675 413.6Z" fill="#277297" stroke="#277297"></path><path d="M701 386.7L739 369.9L689 361.9Z" fill="#297ea6" stroke="#297ea6"></path><path d="M620 503.4L672 475.3L599 433.6Z" fill="#112e42" stroke="#112e42"></path><path d="M696 465.4L725 405.6L675 413.6Z" fill="#00101c" stroke="#00101c"></path><path d="M251 491.3L285 498.3L290 494.4Z" fill="#19435d" stroke="#19435d"></path><path d="M290 494.4L285 498.3L313 502.4Z" fill="#297ea6" stroke="#297ea6"></path><path d="M391 538.3L390 555.1L422 551.3Z" fill="#205a7a" stroke="#205a7a"></path><path d="M197 397.7L211 412.6L247 320.9Z" fill="#081a28" stroke="#081a28"></path><path d="M248 445.6L251 491.3L290 494.4Z" fill="#246688" stroke="#246688"></path><path d="M318 529.1L367 524.3L313 502.4Z" fill="#297ea6" stroke="#297ea6"></path><path d="M507 600L518 569.1L508 542.3Z" fill="#00101c" stroke="#00101c"></path><path d="M193 298L197 397.7L247 320.9Z" fill="#00101c" stroke="#00101c"></path><path d="M249 495.3L251 491.3L229 508.4Z" fill="#081a28" stroke="#081a28"></path><path d="M686 92.6L691 70.7L638 71.7Z" fill="#081a28" stroke="#081a28"></path><path d="M646 54.9L627 0L597 49.9Z" fill="#19435d" stroke="#19435d"></path><path d="M710 65.9L686 92.6L745 94.6Z" fill="#246688" stroke="#246688"></path><path d="M285 498.3L318 529.1L313 502.4Z" fill="#19435d" stroke="#19435d"></path><path d="M806 370.7L765 308L739 369.9Z" fill="#246688" stroke="#246688"></path><path d="M739 369.9L765 308L689 361.9Z" fill="#277297" stroke="#277297"></path><path d="M775 209.4L766 183.3L702 193.3Z" fill="#205a7a" stroke="#205a7a"></path><path d="M694 500.3L696 465.4L672 475.3Z" fill="#112e42" stroke="#112e42"></path><path d="M672 475.3L696 465.4L675 413.6Z" fill="#297ea6" stroke="#297ea6"></path><path d="M691 70.7L679 51.9L638 71.7Z" fill="#277297" stroke="#277297"></path><path d="M172 157.6L242 160.6L172 99.7Z" fill="#081a28" stroke="#081a28"></path><path d="M202 187.4L170 202.4L217 220.3Z" fill="#277297" stroke="#277297"></path><path d="M193 298L146 336.9L197 397.7Z" fill="#297ea6" stroke="#297ea6"></path><path d="M527 586.1L518 569.1L507 600Z" fill="#081a28" stroke="#081a28"></path><path d="M508 542.3L603 550.3L550 480.4Z" fill="#246688" stroke="#246688"></path><path d="M620 503.4L694 500.3L672 475.3Z" fill="#19435d" stroke="#19435d"></path><path d="M603 550.3L620 503.4L550 480.4Z" fill="#205a7a" stroke="#205a7a"></path><path d="M170 202.4L164 218.3L217 220.3Z" fill="#19435d" stroke="#19435d"></path><path d="M318 529.1L386 567.1L367 524.3Z" fill="#0c2435" stroke="#0c2435"></path><path d="M390 555.1L410 587.1L422 551.3Z" fill="#0c2435" stroke="#0c2435"></path><path d="M285 498.3L239 561.1L318 529.1Z" fill="#15384f" stroke="#15384f"></path><path d="M251 491.3L248 445.6L229 508.4Z" fill="#277297" stroke="#277297"></path><path d="M775 209.4L702 193.3L751 265Z" fill="#1d4e6b" stroke="#1d4e6b"></path><path d="M691 70.7L714 55.7L679 51.9Z" fill="#0c2435" stroke="#0c2435"></path><path d="M641 0L627 0L646 54.9Z" fill="#00101c" stroke="#00101c"></path><path d="M518 569.1L603 550.3L508 542.3Z" fill="#0c2435" stroke="#0c2435"></path><path d="M624 530.1L694 500.3L620 503.4Z" fill="#246688" stroke="#246688"></path><path d="M229 508.4L248 445.6L170 484.4Z" fill="#297ea6" stroke="#297ea6"></path><path d="M251 491.3L249 495.3L285 498.3Z" fill="#112e42" stroke="#112e42"></path><path d="M412 600L410 587.1L411 600Z" fill="#1d4e6b" stroke="#1d4e6b"></path><path d="M788 201.4L775 209.4L804 249.1Z" fill="#1d4e6b" stroke="#1d4e6b"></path><path d="M172 99.7L262 111.7L191 47.9Z" fill="#205a7a" stroke="#205a7a"></path><path d="M172 99.7L242 160.6L262 111.7Z" fill="#19435d" stroke="#19435d"></path><path d="M170 202.4L108 211.3L164 218.3Z" fill="#15384f" stroke="#15384f"></path><path d="M745 94.6L686 92.6L696 142.4Z" fill="#15384f" stroke="#15384f"></path><path d="M679 51.9L641 0L646 54.9Z" fill="#081a28" stroke="#081a28"></path><path d="M172 157.6L162 176.4L202 187.4Z" fill="#00101c" stroke="#00101c"></path><path d="M373 0L287 3.9L314 49.9Z" fill="#0c2435" stroke="#0c2435"></path><path d="M717 0L641 0L679 51.9Z" fill="#15384f" stroke="#15384f"></path><path d="M507 600L508 542.3L422 551.3Z" fill="#297ea6" stroke="#297ea6"></path><path d="M518 569.1L527 586.1L603 550.3Z" fill="#277297" stroke="#277297"></path><path d="M373 0L286 0L287 3.9Z" fill="#15384f" stroke="#15384f"></path><path d="M191 47.9L262 111.7L294 62.7Z" fill="#15384f" stroke="#15384f"></path><path d="M410 587.1L386 567.1L411 600Z" fill="#00101c" stroke="#00101c"></path><path d="M386 567.1L410 587.1L390 555.1Z" fill="#205a7a" stroke="#205a7a"></path><path d="M286 0L285 0L287 3.9Z" fill="#205a7a" stroke="#205a7a"></path><path d="M637 552.3L694 500.3L624 530.1Z" fill="#297ea6" stroke="#297ea6"></path><path d="M754 427.6L769 388.7L725 405.6Z" fill="#277297" stroke="#277297"></path><path d="M725 405.6L769 388.7L739 369.9Z" fill="#1d4e6b" stroke="#1d4e6b"></path><path d="M754 427.6L725 405.6L696 465.4Z" fill="#1d4e6b" stroke="#1d4e6b"></path><path d="M804 249.1L775 209.4L751 265Z" fill="#081a28" stroke="#081a28"></path><path d="M745 94.6L714 55.7L710 65.9Z" fill="#081a28" stroke="#081a28"></path><path d="M710 65.9L714 55.7L691 70.7Z" fill="#1d4e6b" stroke="#1d4e6b"></path><path d="M126 275.1L202 248.1L164 218.3Z" fill="#00101c" stroke="#00101c"></path><path d="M126 275.1L146 336.9L193 298Z" fill="#00101c" stroke="#00101c"></path><path d="M170 484.4L248 445.6L211 412.6Z" fill="#00101c" stroke="#00101c"></path><path d="M807 160.6L745 94.6L766 183.3Z" fill="#00101c" stroke="#00101c"></path><path d="M766 183.3L745 94.6L696 142.4Z" fill="#246688" stroke="#246688"></path><path d="M804 249.1L751 265L765 308Z" fill="#112e42" stroke="#112e42"></path><path d="M775 209.4L788 201.4L766 183.3Z" fill="#081a28" stroke="#081a28"></path><path d="M760 473.4L754 427.6L696 465.4Z" fill="#112e42" stroke="#112e42"></path><path d="M603 550.3L637 552.3L624 530.1Z" fill="#081a28" stroke="#081a28"></path><path d="M636 600L637 552.3L603 550.3Z" fill="#15384f" stroke="#15384f"></path><path d="M410 587.1L507 600L422 551.3Z" fill="#246688" stroke="#246688"></path><path d="M527 586.1L585 595.1L603 550.3Z" fill="#205a7a" stroke="#205a7a"></path><path d="M411 600L386 567.1L327 600Z" fill="#1d4e6b" stroke="#1d4e6b"></path><path d="M410 587.1L412 600L507 600Z" fill="#277297" stroke="#277297"></path><path d="M327 600L386 567.1L318 529.1Z" fill="#00101c" stroke="#00101c"></path><path d="M152 447.6L211 412.6L197 397.7Z" fill="#205a7a" stroke="#205a7a"></path><path d="M249 495.3L239 561.1L285 498.3Z" fill="#1d4e6b" stroke="#1d4e6b"></path><path d="M507 600L531 600L527 586.1Z" fill="#205a7a" stroke="#205a7a"></path><path d="M827 255.1L804 249.1L844 292Z" fill="#112e42" stroke="#112e42"></path><path d="M172 157.6L127 161.6L162 176.4Z" fill="#0c2435" stroke="#0c2435"></path><path d="M250 2.9L294 62.7L287 3.9Z" fill="#19435d" stroke="#19435d"></path><path d="M103 224.1L126 275.1L164 218.3Z" fill="#19435d" stroke="#19435d"></path><path d="M108 211.3L170 202.4L162 176.4Z" fill="#15384f" stroke="#15384f"></path><path d="M285 0L250 2.9L287 3.9Z" fill="#277297" stroke="#277297"></path><path d="M682 563.1L718 505.4L694 500.3Z" fill="#15384f" stroke="#15384f"></path><path d="M694 500.3L718 505.4L696 465.4Z" fill="#0c2435" stroke="#0c2435"></path><path d="M118 367.7L147 403.7L146 336.9Z" fill="#277297" stroke="#277297"></path><path d="M146 336.9L147 403.7L197 397.7Z" fill="#297ea6" stroke="#297ea6"></path><path d="M531 600L585 595.1L527 586.1Z" fill="#112e42" stroke="#112e42"></path><path d="M637 552.3L682 563.1L694 500.3Z" fill="#205a7a" stroke="#205a7a"></path><path d="M531 600L583 600L585 595.1Z" fill="#205a7a" stroke="#205a7a"></path><path d="M585 595.1L598 600L603 550.3Z" fill="#297ea6" stroke="#297ea6"></path><path d="M250 2.9L191 47.9L294 62.7Z" fill="#15384f" stroke="#15384f"></path><path d="M836 378.9L806 370.7L825 436.6Z" fill="#19435d" stroke="#19435d"></path><path d="M769 388.7L806 370.7L739 369.9Z" fill="#00101c" stroke="#00101c"></path><path d="M806 370.7L769 388.7L825 436.6Z" fill="#205a7a" stroke="#205a7a"></path><path d="M128 92.7L127 161.6L172 99.7Z" fill="#15384f" stroke="#15384f"></path><path d="M172 99.7L127 161.6L172 157.6Z" fill="#112e42" stroke="#112e42"></path><path d="M583 600L598 600L585 595.1Z" fill="#205a7a" stroke="#205a7a"></path><path d="M788 201.4L807 160.6L766 183.3Z" fill="#205a7a" stroke="#205a7a"></path><path d="M760 42.9L717 0L714 55.7Z" fill="#277297" stroke="#277297"></path><path d="M830 187.3L807 160.6L788 201.4Z" fill="#19435d" stroke="#19435d"></path><path d="M830 187.3L788 201.4L804 249.1Z" fill="#246688" stroke="#246688"></path><path d="M718 505.4L760 473.4L696 465.4Z" fill="#246688" stroke="#246688"></path><path d="M738 546.3L760 473.4L718 505.4Z" fill="#081a28" stroke="#081a28"></path><path d="M323 600L327 600L318 529.1Z" fill="#277297" stroke="#277297"></path><path d="M81 241.3L107 283L126 275.1Z" fill="#112e42" stroke="#112e42"></path><path d="M126 275.1L107 283L146 336.9Z" fill="#277297" stroke="#277297"></path><path d="M74 313L118 358.9L146 336.9Z" fill="#19435d" stroke="#19435d"></path><path d="M844 292L804 249.1L765 308Z" fill="#112e42" stroke="#112e42"></path><path d="M303 600L323 600L318 529.1Z" fill="#1d4e6b" stroke="#1d4e6b"></path><path d="M114 410.7L152 447.6L147 403.7Z" fill="#1d4e6b" stroke="#1d4e6b"></path><path d="M147 403.7L152 447.6L197 397.7Z" fill="#15384f" stroke="#15384f"></path><path d="M239 561.1L303 600L318 529.1Z" fill="#205a7a" stroke="#205a7a"></path><path d="M114 410.7L118 367.7L68 390.7Z" fill="#246688" stroke="#246688"></path><path d="M118 358.9L118 367.7L146 336.9Z" fill="#205a7a" stroke="#205a7a"></path><path d="M127 161.6L108 211.3L162 176.4Z" fill="#205a7a" stroke="#205a7a"></path><path d="M636 600L682 563.1L637 552.3Z" fill="#1d4e6b" stroke="#1d4e6b"></path><path d="M81 241.3L103 224.1L76 177.3Z" fill="#081a28" stroke="#081a28"></path><path d="M108 211.3L103 224.1L164 218.3Z" fill="#277297" stroke="#277297"></path><path d="M152 447.6L170 484.4L211 412.6Z" fill="#112e42" stroke="#112e42"></path><path d="M760 42.9L714 55.7L745 94.6Z" fill="#205a7a" stroke="#205a7a"></path><path d="M714 55.7L717 0L679 51.9Z" fill="#0c2435" stroke="#0c2435"></path><path d="M239 561.1L249 495.3L229 508.4Z" fill="#0c2435" stroke="#0c2435"></path><path d="M250 2.9L212 0L191 47.9Z" fill="#00101c" stroke="#00101c"></path><path d="M191 47.9L128 92.7L172 99.7Z" fill="#205a7a" stroke="#205a7a"></path><path d="M285 0L212 0L250 2.9Z" fill="#246688" stroke="#246688"></path><path d="M781 71.7L760 42.9L745 94.6Z" fill="#297ea6" stroke="#297ea6"></path><path d="M218 544.3L239 561.1L229 508.4Z" fill="#15384f" stroke="#15384f"></path><path d="M791 86.7L781 71.7L745 94.6Z" fill="#297ea6" stroke="#297ea6"></path><path d="M158 499.4L218 544.3L229 508.4Z" fill="#112e42" stroke="#112e42"></path><path d="M836 378.9L828 354.7L806 370.7Z" fill="#112e42" stroke="#112e42"></path><path d="M806 370.7L828 354.7L765 308Z" fill="#00101c" stroke="#00101c"></path><path d="M807 160.6L791 86.7L745 94.6Z" fill="#1d4e6b" stroke="#1d4e6b"></path><path d="M598 600L636 600L603 550.3Z" fill="#19435d" stroke="#19435d"></path><path d="M848 178.3L830 187.3L827 255.1Z" fill="#19435d" stroke="#19435d"></path><path d="M827 255.1L830 187.3L804 249.1Z" fill="#19435d" stroke="#19435d"></path><path d="M807 160.6L820 100.6L791 86.7Z" fill="#0c2435" stroke="#0c2435"></path><path d="M828 354.7L844 292L765 308Z" fill="#19435d" stroke="#19435d"></path><path d="M152 447.6L158 499.4L170 484.4Z" fill="#112e42" stroke="#112e42"></path><path d="M118 367.7L114 410.7L147 403.7Z" fill="#277297" stroke="#277297"></path><path d="M68 390.7L118 367.7L118 358.9Z" fill="#19435d" stroke="#19435d"></path><path d="M74 313L146 336.9L107 283Z" fill="#1d4e6b" stroke="#1d4e6b"></path><path d="M112 34.9L128 92.7L191 47.9Z" fill="#277297" stroke="#277297"></path><path d="M76 177.3L103 224.1L108 211.3Z" fill="#297ea6" stroke="#297ea6"></path><path d="M106 441.4L158 499.4L152 447.6Z" fill="#1d4e6b" stroke="#1d4e6b"></path><path d="M170 484.4L158 499.4L229 508.4Z" fill="#19435d" stroke="#19435d"></path><path d="M218 544.3L206 565.1L239 561.1Z" fill="#277297" stroke="#277297"></path><path d="M825 436.6L769 388.7L754 427.6Z" fill="#1d4e6b" stroke="#1d4e6b"></path><path d="M828 354.7L877 316.9L844 292Z" fill="#246688" stroke="#246688"></path><path d="M76 177.3L108 211.3L127 161.6Z" fill="#112e42" stroke="#112e42"></path><path d="M103 224.1L81 241.3L126 275.1Z" fill="#0c2435" stroke="#0c2435"></path><path d="M743 549.1L738 546.3L751 588.1Z" fill="#15384f" stroke="#15384f"></path><path d="M682 563.1L738 546.3L718 505.4Z" fill="#277297" stroke="#277297"></path><path d="M760 473.4L825 436.6L754 427.6Z" fill="#246688" stroke="#246688"></path><path d="M760 42.9L750 0L717 0Z" fill="#15384f" stroke="#15384f"></path><path d="M814 0L750 0L760 42.9Z" fill="#15384f" stroke="#15384f"></path><path d="M814 0L760 42.9L781 71.7Z" fill="#1d4e6b" stroke="#1d4e6b"></path><path d="M859 110.7L820 100.6L807 160.6Z" fill="#297ea6" stroke="#297ea6"></path><path d="M791 86.7L826 77.9L781 71.7Z" fill="#112e42" stroke="#112e42"></path><path d="M848 178.3L807 160.6L830 187.3Z" fill="#277297" stroke="#277297"></path><path d="M884 167.4L848 178.3L900 195.4Z" fill="#0c2435" stroke="#0c2435"></path><path d="M751 588.1L738 546.3L739 600Z" fill="#081a28" stroke="#081a28"></path><path d="M738 546.3L743 549.1L760 473.4Z" fill="#15384f" stroke="#15384f"></path><path d="M157 538.3L206 565.1L218 544.3Z" fill="#246688" stroke="#246688"></path><path d="M239 561.1L225 600L303 600Z" fill="#15384f" stroke="#15384f"></path><path d="M81 241.3L74 313L107 283Z" fill="#0c2435" stroke="#0c2435"></path><path d="M829 445.4L825 436.6L760 473.4Z" fill="#081a28" stroke="#081a28"></path><path d="M66 76.9L102 109.6L128 92.7Z" fill="#205a7a" stroke="#205a7a"></path><path d="M128 92.7L102 109.6L127 161.6Z" fill="#081a28" stroke="#081a28"></path><path d="M114 410.7L106 441.4L152 447.6Z" fill="#15384f" stroke="#15384f"></path><path d="M173 586.1L225 600L206 565.1Z" fill="#277297" stroke="#277297"></path><path d="M83 440.6L106 441.4L114 410.7Z" fill="#19435d" stroke="#19435d"></path><path d="M212 0L169 0L191 47.9Z" fill="#19435d" stroke="#19435d"></path><path d="M68 151.6L76 177.3L127 161.6Z" fill="#0c2435" stroke="#0c2435"></path><path d="M22 322L60 326.9L74 313Z" fill="#00101c" stroke="#00101c"></path><path d="M815 502.4L829 445.4L760 473.4Z" fill="#112e42" stroke="#112e42"></path><path d="M825 436.6L900 400.7L836 378.9Z" fill="#112e42" stroke="#112e42"></path><path d="M859 110.7L826 77.9L820 100.6Z" fill="#277297" stroke="#277297"></path><path d="M820 100.6L826 77.9L791 86.7Z" fill="#00101c" stroke="#00101c"></path><path d="M157 538.3L218 544.3L158 499.4Z" fill="#19435d" stroke="#19435d"></path><path d="M206 565.1L225 600L239 561.1Z" fill="#112e42" stroke="#112e42"></path><path d="M104 552.3L157 538.3L158 499.4Z" fill="#00101c" stroke="#00101c"></path><path d="M0 287L74 313L81 241.3Z" fill="#0c2435" stroke="#0c2435"></path><path d="M74 313L60 326.9L118 358.9Z" fill="#277297" stroke="#277297"></path><path d="M900 337.9L877 316.9L828 354.7Z" fill="#0c2435" stroke="#0c2435"></path><path d="M844 292L900 274.1L827 255.1Z" fill="#00101c" stroke="#00101c"></path><path d="M900 317L877 316.9L900 337.9Z" fill="#112e42" stroke="#112e42"></path><path d="M49 157.4L68 151.6L24 121.7Z" fill="#277297" stroke="#277297"></path><path d="M102 109.6L68 151.6L127 161.6Z" fill="#00101c" stroke="#00101c"></path><path d="M76 177.3L42 223.1L81 241.3Z" fill="#15384f" stroke="#15384f"></path><path d="M60 326.9L68 390.7L118 358.9Z" fill="#19435d" stroke="#19435d"></path><path d="M106 441.4L104 552.3L158 499.4Z" fill="#081a28" stroke="#081a28"></path><path d="M169 0L145 0L191 47.9Z" fill="#19435d" stroke="#19435d"></path><path d="M743 549.1L815 502.4L760 473.4Z" fill="#297ea6" stroke="#297ea6"></path><path d="M900 317L889 299L877 316.9Z" fill="#0c2435" stroke="#0c2435"></path><path d="M68 390.7L83 440.6L114 410.7Z" fill="#1d4e6b" stroke="#1d4e6b"></path><path d="M848 178.3L859 110.7L807 160.6Z" fill="#081a28" stroke="#081a28"></path><path d="M826 77.9L814 0L781 71.7Z" fill="#0c2435" stroke="#0c2435"></path><path d="M884 167.4L859 110.7L848 178.3Z" fill="#0c2435" stroke="#0c2435"></path><path d="M894 291.1L889 299L900 317Z" fill="#15384f" stroke="#15384f"></path><path d="M877 316.9L889 299L844 292Z" fill="#19435d" stroke="#19435d"></path><path d="M49 157.4L55 164.4L68 151.6Z" fill="#15384f" stroke="#15384f"></path><path d="M68 151.6L55 164.4L76 177.3Z" fill="#297ea6" stroke="#297ea6"></path><path d="M145 0L112 34.9L191 47.9Z" fill="#205a7a" stroke="#205a7a"></path><path d="M55 164.4L42 223.1L76 177.3Z" fill="#19435d" stroke="#19435d"></path><path d="M11 366.9L57 398.6L68 390.7Z" fill="#297ea6" stroke="#297ea6"></path><path d="M739 600L738 546.3L682 563.1Z" fill="#15384f" stroke="#15384f"></path><path d="M743 549.1L811 552.3L815 502.4Z" fill="#246688" stroke="#246688"></path><path d="M828 354.7L836 378.9L900 337.9Z" fill="#277297" stroke="#277297"></path><path d="M889 299L894 291.1L844 292Z" fill="#277297" stroke="#277297"></path><path d="M636 600L739 600L682 563.1Z" fill="#081a28" stroke="#081a28"></path><path d="M11 366.9L68 390.7L60 326.9Z" fill="#112e42" stroke="#112e42"></path><path d="M68 390.7L57 398.6L83 440.6Z" fill="#1d4e6b" stroke="#1d4e6b"></path><path d="M900 195.4L848 178.3L827 255.1Z" fill="#0c2435" stroke="#0c2435"></path><path d="M0 170.4L0 212.3L42 223.1Z" fill="#277297" stroke="#277297"></path><path d="M50 83.7L68 151.6L102 109.6Z" fill="#297ea6" stroke="#297ea6"></path><path d="M144 571.1L173 586.1L157 538.3Z" fill="#277297" stroke="#277297"></path><path d="M157 538.3L173 586.1L206 565.1Z" fill="#0c2435" stroke="#0c2435"></path><path d="M71 444.4L106 441.4L83 440.6Z" fill="#081a28" stroke="#081a28"></path><path d="M57 398.6L71 444.4L83 440.6Z" fill="#246688" stroke="#246688"></path><path d="M894 291.1L900 274.1L844 292Z" fill="#081a28" stroke="#081a28"></path><path d="M900 337.9L836 378.9L900 400.7Z" fill="#00101c" stroke="#00101c"></path><path d="M894 291.1L900 317L900 274.1Z" fill="#19435d" stroke="#19435d"></path><path d="M900 400.7L825 436.6L900 437.6Z" fill="#00101c" stroke="#00101c"></path><path d="M854 40.9L826 77.9L859 110.7Z" fill="#297ea6" stroke="#297ea6"></path><path d="M854 40.9L814 0L826 77.9Z" fill="#246688" stroke="#246688"></path><path d="M900 274.1L900 195.4L827 255.1Z" fill="#00101c" stroke="#00101c"></path><path d="M884 167.4L900 133.6L859 110.7Z" fill="#246688" stroke="#246688"></path><path d="M900 195.4L900 183.3L884 167.4Z" fill="#297ea6" stroke="#297ea6"></path><path d="M104 552.3L144 571.1L157 538.3Z" fill="#1d4e6b" stroke="#1d4e6b"></path><path d="M50 83.7L66 76.9L67 11.9Z" fill="#19435d" stroke="#19435d"></path><path d="M112 34.9L66 76.9L128 92.7Z" fill="#297ea6" stroke="#297ea6"></path><path d="M819 550.1L811 552.3L805 600Z" fill="#246688" stroke="#246688"></path><path d="M751 588.1L811 552.3L743 549.1Z" fill="#205a7a" stroke="#205a7a"></path><path d="M815 502.4L846 508.3L829 445.4Z" fill="#112e42" stroke="#112e42"></path><path d="M0 256.1L81 241.3L42 223.1Z" fill="#00101c" stroke="#00101c"></path><path d="M0 287L22 322L74 313Z" fill="#19435d" stroke="#19435d"></path><path d="M57 398.6L0 407.7L71 444.4Z" fill="#112e42" stroke="#112e42"></path><path d="M144 571.1L165 600L173 586.1Z" fill="#0c2435" stroke="#0c2435"></path><path d="M173 586.1L165 600L225 600Z" fill="#1d4e6b" stroke="#1d4e6b"></path><path d="M819 550.1L846 508.3L815 502.4Z" fill="#297ea6" stroke="#297ea6"></path><path d="M900 83.7L854 40.9L859 110.7Z" fill="#0c2435" stroke="#0c2435"></path><path d="M811 552.3L819 550.1L815 502.4Z" fill="#081a28" stroke="#081a28"></path><path d="M780 600L811 552.3L751 588.1Z" fill="#246688" stroke="#246688"></path><path d="M900 437.6L825 436.6L829 445.4Z" fill="#0c2435" stroke="#0c2435"></path><path d="M900 183.3L900 133.6L884 167.4Z" fill="#081a28" stroke="#081a28"></path><path d="M67 11.9L66 76.9L112 34.9Z" fill="#277297" stroke="#277297"></path><path d="M66 76.9L50 83.7L102 109.6Z" fill="#19435d" stroke="#19435d"></path><path d="M0 212.3L0 256.1L42 223.1Z" fill="#277297" stroke="#277297"></path><path d="M739 600L780 600L751 588.1Z" fill="#277297" stroke="#277297"></path><path d="M900 466.4L883 459.6L900 522.3Z" fill="#00101c" stroke="#00101c"></path><path d="M846 508.3L883 459.6L829 445.4Z" fill="#1d4e6b" stroke="#1d4e6b"></path><path d="M59 545.1L104 552.3L71 444.4Z" fill="#081a28" stroke="#081a28"></path><path d="M71 444.4L104 552.3L106 441.4Z" fill="#246688" stroke="#246688"></path><path d="M144 571.1L145 600L165 600Z" fill="#0c2435" stroke="#0c2435"></path><path d="M120 577.1L145 600L144 571.1Z" fill="#205a7a" stroke="#205a7a"></path><path d="M104 552.3L120 577.1L144 571.1Z" fill="#19435d" stroke="#19435d"></path><path d="M900 466.4L900 437.6L883 459.6Z" fill="#277297" stroke="#277297"></path><path d="M883 459.6L900 437.6L829 445.4Z" fill="#00101c" stroke="#00101c"></path><path d="M0 287L11 366.9L22 322Z" fill="#19435d" stroke="#19435d"></path><path d="M22 322L11 366.9L60 326.9Z" fill="#19435d" stroke="#19435d"></path><path d="M50 83.7L24 121.7L68 151.6Z" fill="#19435d" stroke="#19435d"></path><path d="M42 223.1L55 164.4L0 170.4Z" fill="#205a7a" stroke="#205a7a"></path><path d="M0 256.1L0 287L81 241.3Z" fill="#0c2435" stroke="#0c2435"></path><path d="M0 170.4L55 164.4L49 157.4Z" fill="#00101c" stroke="#00101c"></path><path d="M900 133.6L900 83.7L859 110.7Z" fill="#246688" stroke="#246688"></path><path d="M854 40.9L877 0L814 0Z" fill="#297ea6" stroke="#297ea6"></path><path d="M780 600L805 600L811 552.3Z" fill="#277297" stroke="#277297"></path><path d="M884 553.1L900 522.3L846 508.3Z" fill="#112e42" stroke="#112e42"></path><path d="M0 102.7L0 111.6L24 121.7Z" fill="#112e42" stroke="#112e42"></path><path d="M145 0L67 11.9L112 34.9Z" fill="#15384f" stroke="#15384f"></path><path d="M24 121.7L0 170.4L49 157.4Z" fill="#15384f" stroke="#15384f"></path><path d="M0 111.6L0 170.4L24 121.7Z" fill="#112e42" stroke="#112e42"></path><path d="M900 522.3L883 459.6L846 508.3Z" fill="#205a7a" stroke="#205a7a"></path><path d="M0 287L0 381.9L11 366.9Z" fill="#277297" stroke="#277297"></path><path d="M11 366.9L0 381.9L57 398.6Z" fill="#081a28" stroke="#081a28"></path><path d="M900 83.7L900 55.9L854 40.9Z" fill="#0c2435" stroke="#0c2435"></path><path d="M0 381.9L0 400.6L57 398.6Z" fill="#246688" stroke="#246688"></path><path d="M81 600L112 600L120 577.1Z" fill="#15384f" stroke="#15384f"></path><path d="M81 600L120 577.1L104 552.3Z" fill="#15384f" stroke="#15384f"></path><path d="M120 577.1L112 600L145 600Z" fill="#0c2435" stroke="#0c2435"></path><path d="M0 400.6L0 407.7L57 398.6Z" fill="#277297" stroke="#277297"></path><path d="M900 55.9L877 0L854 40.9Z" fill="#081a28" stroke="#081a28"></path><path d="M0 102.7L24 121.7L50 83.7Z" fill="#246688" stroke="#246688"></path><path d="M145 0L54 0L67 11.9Z" fill="#277297" stroke="#277297"></path><path d="M67 11.9L0 24.9L50 83.7Z" fill="#112e42" stroke="#112e42"></path><path d="M0 480.3L59 545.1L71 444.4Z" fill="#1d4e6b" stroke="#1d4e6b"></path><path d="M54 0L51 0L67 11.9Z" fill="#1d4e6b" stroke="#1d4e6b"></path><path d="M0 24.9L0 102.7L50 83.7Z" fill="#112e42" stroke="#112e42"></path><path d="M884 553.1L846 508.3L819 550.1Z" fill="#00101c" stroke="#00101c"></path><path d="M852 600L884 553.1L819 550.1Z" fill="#246688" stroke="#246688"></path><path d="M0 407.7L0 464.4L71 444.4Z" fill="#15384f" stroke="#15384f"></path><path d="M59 545.1L81 600L104 552.3Z" fill="#277297" stroke="#277297"></path><path d="M41 551.3L81 600L59 545.1Z" fill="#112e42" stroke="#112e42"></path><path d="M805 600L852 600L819 550.1Z" fill="#277297" stroke="#277297"></path><path d="M900 55.9L900 0L877 0Z" fill="#19435d" stroke="#19435d"></path><path d="M0 480.3L41 551.3L59 545.1Z" fill="#112e42" stroke="#112e42"></path><path d="M0 464.4L0 480.3L71 444.4Z" fill="#277297" stroke="#277297"></path><path d="M51 0L0 24.9L67 11.9Z" fill="#246688" stroke="#246688"></path><path d="M51 0L0 0L0 24.9Z" fill="#081a28" stroke="#081a28"></path><path d="M852 600L900 593.1L884 553.1Z" fill="#1d4e6b" stroke="#1d4e6b"></path><path d="M884 553.1L900 593.1L900 522.3Z" fill="#297ea6" stroke="#297ea6"></path><path d="M852 600L900 600L900 593.1Z" fill="#15384f" stroke="#15384f"></path><path d="M0 480.3L0 553.1L41 551.3Z" fill="#277297" stroke="#277297"></path><path d="M41 551.3L0 600L81 600Z" fill="#19435d" stroke="#19435d"></path><path d="M0 553.1L0 600L41 551.3Z" fill="#0c2435" stroke="#0c2435"></path></g></svg>